<svg width="31" height="30" viewBox="0 0 31 30" fill="none" xmlns="http://www.w3.org/2000/svg">
<rect width="31" height="30" fill="#A3A3A3"/>
<g id="INDEX">
<g id="TEAM">
<rect width="1920" height="715" transform="translate(-443 -553)" fill="white"/>
<g id="Services">
<g id="Person 01">
<rect x="-69.5" y="-278.5" width="277.5" height="340" fill="white"/>
<rect x="-69.5" y="-278.5" width="277.5" height="340" stroke="#EEEEEE"/>
<g id="down block">
<g id="Social icon">
<g id="Facebook">
<circle id="Ellipse 8" cx="15.25" cy="15" r="15" fill="#F25822"/>
<path id="Vector" d="M18.5833 9.33447C18.5833 9.24606 18.5482 9.16128 18.4857 9.09877C18.4232 9.03625 18.3384 9.00113 18.25 9.00113H16.5833C15.7441 8.95933 14.9224 9.2514 14.2978 9.81352C13.6732 10.3756 13.2965 11.1621 13.25 12.0011V13.8011H11.5833C11.4949 13.8011 11.4101 13.8363 11.3476 13.8988C11.2851 13.9613 11.25 14.0461 11.25 14.1345V15.8678C11.25 15.9562 11.2851 16.041 11.3476 16.1035C11.4101 16.166 11.4949 16.2011 11.5833 16.2011H13.25V20.6678C13.25 20.7562 13.2851 20.841 13.3476 20.9035C13.4101 20.966 13.4949 21.0011 13.5833 21.0011H15.5833C15.6717 21.0011 15.7565 20.966 15.819 20.9035C15.8815 20.841 15.9167 20.7562 15.9167 20.6678V16.2011H17.6633C17.7375 16.2022 17.8098 16.1785 17.869 16.1338C17.9281 16.0892 17.9707 16.0261 17.99 15.9545L18.47 14.2211C18.4833 14.1719 18.485 14.1202 18.4752 14.0702C18.4654 14.0201 18.4442 13.973 18.4133 13.9324C18.3824 13.8919 18.3426 13.8589 18.2969 13.8362C18.2513 13.8134 18.201 13.8014 18.15 13.8011H15.9167V12.0011C15.9332 11.8361 16.0107 11.6832 16.134 11.5723C16.2573 11.4613 16.4175 11.4003 16.5833 11.4011H18.25C18.3384 11.4011 18.4232 11.366 18.4857 11.3035C18.5482 11.241 18.5833 11.1562 18.5833 11.0678V9.33447Z" fill="white"/>
</g>
</g>
</g>
</g>
</g>
</g>
</g>
</svg>
