<svg width="17" height="16" viewBox="0 0 17 16" fill="none" xmlns="http://www.w3.org/2000/svg">
<rect width="17" height="16" fill="#A3A3A3"/>
<g id="INDEX">
<g id="TEAM">
<rect width="1920" height="715" transform="translate(-565 -560)" fill="white"/>
<g id="Services">
<g id="Person 01">
<rect x="-191.5" y="-285.5" width="277.5" height="340" fill="white"/>
<rect x="-191.5" y="-285.5" width="277.5" height="340" stroke="#EEEEEE"/>
<g id="down block">
<g id="Social icon">
<g id="Google">
<path id="Vector" d="M11.9166 9.33346C11.7214 10.0124 11.3346 10.6207 10.8025 11.0854C10.2704 11.5501 9.61564 11.8515 8.9166 11.9535C8.36995 12.0328 7.81292 12.0008 7.27893 11.8595C6.74494 11.7182 6.24502 11.4704 5.80918 11.131C5.37333 10.7917 5.01054 10.3678 4.7426 9.88476C4.47466 9.40173 4.30708 8.86954 4.24993 8.32013C4.20566 7.76857 4.27631 7.21382 4.45741 6.69096C4.63851 6.16809 4.92613 5.68849 5.30207 5.28248C5.67801 4.87646 6.1341 4.55286 6.64151 4.33213C7.14892 4.11141 7.6966 3.99836 8.24993 4.00013C8.76843 4.00086 9.28204 4.10041 9.76327 4.29346C9.83904 4.32748 9.92479 4.33198 10.0037 4.30609C10.0826 4.28019 10.149 4.22576 10.1899 4.15346L11.1499 2.3868C11.1706 2.3461 11.183 2.30173 11.1865 2.25623C11.19 2.21072 11.1844 2.16498 11.1702 2.12162C11.1559 2.07826 11.1333 2.03814 11.1035 2.00357C11.0737 1.96899 11.0374 1.94064 10.9966 1.92013C9.96575 1.4534 8.83305 1.25676 7.7052 1.34871C6.57736 1.44066 5.49148 1.81818 4.54983 2.44572C3.60819 3.07326 2.84178 3.93016 2.32279 4.93572C1.80379 5.94127 1.5493 7.06238 1.58327 8.19346C1.64896 9.87339 2.33952 11.4683 3.51965 12.6657C4.69979 13.8631 6.28447 14.5767 7.96327 14.6668C9.72188 14.7448 11.44 14.124 12.7426 12.94C14.0453 11.756 14.8268 10.1048 14.9166 8.3468V7.01346C14.9149 6.92559 14.8792 6.84179 14.8171 6.77965C14.7549 6.7175 14.6711 6.68184 14.5833 6.68013H8.58327C8.49486 6.68013 8.41008 6.71525 8.34756 6.77776C8.28505 6.84027 8.24993 6.92506 8.24993 7.01346V9.01346C8.24993 9.10187 8.28505 9.18665 8.34756 9.24916C8.41008 9.31168 8.49486 9.3468 8.58327 9.3468H11.9166" fill="#AAAAAA"/>
</g>
</g>
</g>
</g>
</g>
</g>
</g>
</svg>
