<svg width="17" height="16" viewBox="0 0 17 16" fill="none" xmlns="http://www.w3.org/2000/svg">
<rect width="17" height="16" fill="#A3A3A3"/>
<g id="INDEX">
<g id="TEAM">
<rect width="1920" height="715" transform="translate(-529 -560)" fill="white"/>
<g id="Services">
<g id="Person 01">
<rect x="-155.5" y="-285.5" width="277.5" height="340" fill="white"/>
<rect x="-155.5" y="-285.5" width="277.5" height="340" stroke="#EEEEEE"/>
<g id="down block">
<g id="Social icon">
<g id="Linkedin">
<path id="Vector" d="M10.3499 5.60012C9.83896 5.59837 9.33266 5.69738 8.86 5.8915C8.38735 6.08563 7.9576 6.37104 7.59537 6.73142C7.23313 7.0918 6.94551 7.52007 6.74896 7.99172C6.55241 8.46337 6.45079 8.96915 6.44992 9.48012V13.4001C6.44992 13.5593 6.51313 13.7119 6.62566 13.8244C6.73818 13.9369 6.89079 14.0001 7.04992 14.0001H8.44992C8.60905 14.0001 8.76166 13.9369 8.87418 13.8244C8.98671 13.7119 9.04992 13.5593 9.04992 13.4001V9.48012C9.04979 9.29839 9.08796 9.11867 9.16194 8.95268C9.23592 8.78668 9.34406 8.63815 9.4793 8.51675C9.61453 8.39535 9.77384 8.30381 9.94682 8.24811C10.1198 8.19241 10.3026 8.17378 10.4833 8.19345C10.8073 8.23426 11.105 8.39256 11.3201 8.63833C11.5351 8.88409 11.6525 9.20023 11.6499 9.52679V13.4001C11.6499 13.5593 11.7131 13.7119 11.8257 13.8244C11.9382 13.9369 12.0908 14.0001 12.2499 14.0001H13.6499C13.8091 14.0001 13.9617 13.9369 14.0742 13.8244C14.1867 13.7119 14.2499 13.5593 14.2499 13.4001V9.48012C14.249 8.96915 14.1474 8.46337 13.9509 7.99172C13.7543 7.52007 13.4667 7.0918 13.1045 6.73142C12.7422 6.37104 12.3125 6.08563 11.8398 5.8915C11.3672 5.69738 10.8609 5.59837 10.3499 5.60012Z" fill="#AAAAAA"/>
<path id="Vector_2" d="M4.65 6.20032H2.85C2.51863 6.20032 2.25 6.46895 2.25 6.80032V13.4003C2.25 13.7317 2.51863 14.0003 2.85 14.0003H4.65C4.98137 14.0003 5.25 13.7317 5.25 13.4003V6.80032C5.25 6.46895 4.98137 6.20032 4.65 6.20032Z" fill="#AAAAAA"/>
<path id="Vector_3" d="M3.75 5C4.57843 5 5.25 4.32843 5.25 3.5C5.25 2.67157 4.57843 2 3.75 2C2.92157 2 2.25 2.67157 2.25 3.5C2.25 4.32843 2.92157 5 3.75 5Z" fill="#AAAAAA"/>
</g>
</g>
</g>
</g>
</g>
</g>
</g>
</svg>
