<svg width="15" height="15" viewBox="0 0 15 15" fill="none" xmlns="http://www.w3.org/2000/svg">
<rect width="15" height="15" fill="#A3A3A3"/>
<g id="INDEX">
<g id="BLOG POST" clip-path="url(#clip0_16_3445)">
<rect width="1920" height="696" transform="translate(-966 -401)" fill="white"/>
<g id="Blog">
<g id="Card 02">
<g clip-path="url(#clip1_16_3445)">
<rect x="-455.5" y="-127" width="899" height="322" fill="white"/>
<g id="Right block">
<g id="Meta">
<g id="02">
<g id="Icon">
<g id="icon">
<g id="heart">
<path id="Vector" d="M7.50007 12.7499C7.4233 12.7503 7.34719 12.7356 7.27612 12.7066C7.20505 12.6776 7.14041 12.6348 7.0859 12.5807L2.5534 8.04239C1.98486 7.46791 1.66595 6.6923 1.66595 5.88405C1.66595 5.07581 1.98486 4.3002 2.5534 3.72572C3.12639 3.15435 3.90255 2.8335 4.71173 2.8335C5.52092 2.8335 6.29708 3.15435 6.87007 3.72572L7.50007 4.35572L8.13007 3.72572C8.70305 3.15435 9.47922 2.8335 10.2884 2.8335C11.0976 2.8335 11.8737 3.15435 12.4467 3.72572C13.0153 4.3002 13.3342 5.07581 13.3342 5.88405C13.3342 6.6923 13.0153 7.46791 12.4467 8.04239L7.91423 12.5807C7.85973 12.6348 7.79508 12.6776 7.72401 12.7066C7.65294 12.7356 7.57684 12.7503 7.50007 12.7499Z" fill="#F25822"/>
</g>
</g>
</g>
</g>
</g>
</g>
</g>
<rect x="-455" y="-126.5" width="898" height="321" stroke="#EEEEEE"/>
</g>
</g>
</g>
</g>
<defs>
<clipPath id="clip0_16_3445">
<rect width="1920" height="696" fill="white" transform="translate(-966 -401)"/>
</clipPath>
<clipPath id="clip1_16_3445">
<rect x="-455.5" y="-127" width="899" height="322" fill="white"/>
</clipPath>
</defs>
</svg>
