<svg width="15" height="15" viewBox="0 0 15 15" fill="none" xmlns="http://www.w3.org/2000/svg">
<rect width="15" height="15" fill="#A3A3A3"/>
<g id="INDEX">
<g id="BLOG POST" clip-path="url(#clip0_16_3445)">
<rect width="1920" height="696" transform="translate(-864 -401)" fill="white"/>
<g id="Blog">
<g id="Card 02">
<g clip-path="url(#clip1_16_3445)">
<rect x="-353.5" y="-127" width="899" height="322" fill="white"/>
<g id="Right block">
<g id="Meta">
<g id="01">
<g id="Icon">
<g id="icon">
<g id="person">
<path id="Vector" d="M7.49993 6.91667C7.96142 6.91667 8.41254 6.77982 8.79626 6.52343C9.17997 6.26704 9.47904 5.90262 9.65565 5.47626C9.83225 5.0499 9.87846 4.58075 9.78843 4.12812C9.6984 3.6755 9.47617 3.25974 9.14984 2.93342C8.82352 2.6071 8.40776 2.38487 7.95514 2.29484C7.50252 2.2048 7.03336 2.25101 6.607 2.42762C6.18064 2.60422 5.81622 2.90329 5.55983 3.287C5.30344 3.67072 5.1666 4.12184 5.1666 4.58333C5.1666 5.20217 5.41243 5.79567 5.85001 6.23325C6.2876 6.67084 6.88109 6.91667 7.49993 6.91667Z" fill="#F25822"/>
<path id="Vector_2" d="M10.9999 12.7499C11.1546 12.7499 11.303 12.6885 11.4124 12.5791C11.5218 12.4697 11.5833 12.3213 11.5833 12.1666C11.5833 11.0836 11.1531 10.045 10.3873 9.27923C9.62151 8.51346 8.5829 8.08325 7.49993 8.08325C6.41696 8.08325 5.37835 8.51346 4.61258 9.27923C3.8468 10.045 3.4166 11.0836 3.4166 12.1666C3.4166 12.3213 3.47805 12.4697 3.58745 12.5791C3.69685 12.6885 3.84522 12.7499 3.99993 12.7499H10.9999Z" fill="#F25822"/>
</g>
</g>
</g>
</g>
</g>
</g>
</g>
<rect x="-353" y="-126.5" width="898" height="321" stroke="#EEEEEE"/>
</g>
</g>
</g>
</g>
<defs>
<clipPath id="clip0_16_3445">
<rect width="1920" height="696" fill="white" transform="translate(-864 -401)"/>
</clipPath>
<clipPath id="clip1_16_3445">
<rect x="-353.5" y="-127" width="899" height="322" fill="white"/>
</clipPath>
</defs>
</svg>
