<svg width="15" height="14" viewBox="0 0 15 14" fill="none" xmlns="http://www.w3.org/2000/svg">
<rect width="15" height="14" fill="#A3A3A3"/>
<g id="INDEX">
<g id="BLOG POST" clip-path="url(#clip0_16_3445)">
<rect width="1920" height="696" transform="translate(-1062 -400)" fill="white"/>
<g id="Blog">
<g id="Card 02">
<g clip-path="url(#clip1_16_3445)">
<rect x="-551.5" y="-126" width="899" height="322" fill="white"/>
<g id="Right block">
<g id="Meta">
<g id="03">
<g id="Icon">
<g id="message">
<path id="Vector" d="M11.6242 4.49562C10.6671 3.57844 9.40386 3.00793 8.05226 2.88243C6.70067 2.75694 5.34544 3.08433 4.22021 3.80815C3.09498 4.53198 2.27027 5.60689 1.88826 6.84756C1.50626 8.08823 1.59089 9.41692 2.12757 10.6046C2.1835 10.7149 2.20186 10.8392 2.18007 10.96L1.66674 13.3091C1.64696 13.3992 1.651 13.4925 1.67849 13.5808C1.70598 13.669 1.75606 13.7493 1.82424 13.8145C1.88012 13.8673 1.94666 13.9088 2.01985 13.9365C2.09303 13.9642 2.17135 13.9775 2.25007 13.9756H2.36674L4.8634 13.498C4.99029 13.4834 5.11897 13.5007 5.23674 13.5479C6.48419 14.0589 7.87981 14.1395 9.18298 13.7758C10.4861 13.4121 11.6152 12.6269 12.3755 11.5557C13.1358 10.4844 13.4797 9.19416 13.3478 7.90739C13.216 6.62062 12.6168 5.41795 11.6534 4.50672L11.6242 4.49562ZM5.16674 8.97735C5.05136 8.97735 4.93858 8.94478 4.84265 8.88376C4.74672 8.82274 4.67196 8.736 4.62781 8.63452C4.58365 8.53304 4.5721 8.42138 4.59461 8.31365C4.61712 8.20592 4.67268 8.10697 4.75426 8.0293C4.83584 7.95163 4.93978 7.89874 5.05293 7.87731C5.16609 7.85588 5.28338 7.86688 5.38997 7.90891C5.49656 7.95095 5.58766 8.02213 5.65176 8.11346C5.71586 8.20478 5.75007 8.31216 5.75007 8.422C5.75007 8.56929 5.68861 8.71054 5.57921 8.81469C5.46982 8.91884 5.32145 8.97735 5.16674 8.97735ZM7.50007 8.97735C7.3847 8.97735 7.27191 8.94478 7.17599 8.88376C7.08006 8.82274 7.00529 8.736 6.96114 8.63452C6.91699 8.53304 6.90544 8.42138 6.92794 8.31365C6.95045 8.20592 7.00601 8.10697 7.08759 8.0293C7.16917 7.95163 7.27311 7.89874 7.38627 7.87731C7.49942 7.85588 7.61671 7.86688 7.7233 7.90891C7.82989 7.95095 7.921 8.02213 7.98509 8.11346C8.04919 8.20478 8.0834 8.31216 8.0834 8.422C8.0834 8.56929 8.02194 8.71054 7.91255 8.81469C7.80315 8.91884 7.65478 8.97735 7.50007 8.97735ZM9.8334 8.97735C9.71803 8.97735 9.60525 8.94478 9.50932 8.88376C9.41339 8.82274 9.33862 8.736 9.29447 8.63452C9.25032 8.53304 9.23877 8.42138 9.26128 8.31365C9.28379 8.20592 9.33934 8.10697 9.42092 8.0293C9.5025 7.95163 9.60644 7.89874 9.7196 7.87731C9.83276 7.85588 9.95004 7.86688 10.0566 7.90891C10.1632 7.95095 10.2543 8.02213 10.3184 8.11346C10.3825 8.20478 10.4167 8.31216 10.4167 8.422C10.4167 8.56929 10.3553 8.71054 10.2459 8.81469C10.1365 8.91884 9.98811 8.97735 9.8334 8.97735Z" fill="#F25822"/>
</g>
</g>
</g>
</g>
</g>
</g>
<rect x="-551" y="-125.5" width="898" height="321" stroke="#EEEEEE"/>
</g>
</g>
</g>
</g>
<defs>
<clipPath id="clip0_16_3445">
<rect width="1920" height="696" fill="white" transform="translate(-1062 -400)"/>
</clipPath>
<clipPath id="clip1_16_3445">
<rect x="-551.5" y="-126" width="899" height="322" fill="white"/>
</clipPath>
</defs>
</svg>
