<svg width="100" height="100" viewBox="0 0 100 100" fill="none" xmlns="http://www.w3.org/2000/svg">
<rect width="100" height="100" fill="#A3A3A3"/>
<g id="INDEX">
<g id="WHAT WE DO">
<rect width="1920" height="888" transform="translate(-928 -664)" fill="white"/>
<g id="Right block">
<g id="Blocks">
<g id="01 Block" filter="url(#filter0_d_16_3445)">
<rect width="643" height="148" transform="translate(-24 -188)" fill="white"/>
</g>
<g id="01 Block_2">
<g id="Icon">
<circle id="Ellipse 3" cx="50" cy="50" r="50" fill="#FFF3C9"/>
<g id="icon">
<g id="pie-chart">
<path id="Vector" d="M51.6667 33.3333C51.2246 33.3333 50.8007 33.5089 50.4882 33.8215C50.1756 34.134 50 34.558 50 35V48.3333C50 48.7753 50.1756 49.1993 50.4882 49.5118C50.8007 49.8244 51.2246 50 51.6667 50H65C65.442 50 65.866 49.8244 66.1785 49.5118C66.4911 49.1993 66.6667 48.7753 66.6667 48.3333C66.6667 44.3551 65.0863 40.5398 62.2733 37.7267C59.4602 34.9137 55.6449 33.3333 51.6667 33.3333ZM53.3333 46.6666V36.7833C55.827 37.1427 58.1374 38.2996 59.9189 40.0811C61.7004 41.8626 62.8573 44.173 63.2167 46.6666H53.3333Z" fill="#FFC700"/>
<path id="Vector_2" d="M64.7 53.4333C64.4932 53.3594 64.2738 53.327 64.0545 53.3382C63.8352 53.3493 63.6202 53.4037 63.422 53.4981C63.2237 53.5926 63.0461 53.7253 62.8993 53.8887C62.7526 54.052 62.6395 54.2428 62.5667 54.4499C61.8156 56.5731 60.5389 58.4715 58.8558 59.9679C57.1727 61.4643 55.1379 62.51 52.9414 63.0074C50.7449 63.5048 48.4582 63.4377 46.2946 62.8124C44.131 62.187 42.1611 61.0239 40.5686 59.4314C38.9761 57.8389 37.8129 55.8689 37.1876 53.7054C36.5623 51.5418 36.4952 49.255 36.9926 47.0585C37.49 44.862 38.5357 42.8273 40.032 41.1441C41.5284 39.461 43.4268 38.1844 45.55 37.4333C45.9677 37.2874 46.3104 36.9816 46.5026 36.5831C46.6948 36.1845 46.7209 35.726 46.575 35.3083C46.4291 34.8906 46.1233 34.5479 45.7248 34.3557C45.3263 34.1634 44.8677 34.1374 44.45 34.2833C41.7951 35.2212 39.4211 36.8165 37.5495 38.9203C35.678 41.0241 34.37 43.5677 33.7475 46.3138C33.1251 49.0599 33.2085 51.9189 33.9901 54.624C34.7716 57.3291 36.2257 59.7921 38.2168 61.7832C40.2078 63.7742 42.6708 65.2283 45.3759 66.0099C48.081 66.7914 50.9401 66.8748 53.6862 66.2524C56.4322 65.63 58.9759 64.3219 61.0796 62.4504C63.1834 60.5789 64.7787 58.2049 65.7167 55.5499C65.8608 55.1344 65.8348 54.6787 65.6444 54.2822C65.4539 53.8857 65.1145 53.5805 64.7 53.4333Z" fill="#FFC700"/>
</g>
</g>
</g>
</g>
</g>
</g>
</g>
</g>
<defs>
<filter id="filter0_d_16_3445" x="-71" y="-225" width="767" height="272" filterUnits="userSpaceOnUse" color-interpolation-filters="sRGB">
<feFlood flood-opacity="0" result="BackgroundImageFix"/>
<feColorMatrix in="SourceAlpha" type="matrix" values="0 0 0 0 0 0 0 0 0 0 0 0 0 0 0 0 0 0 127 0" result="hardAlpha"/>
<feMorphology radius="6" operator="dilate" in="SourceAlpha" result="effect1_dropShadow_16_3445"/>
<feOffset dx="15" dy="25"/>
<feGaussianBlur stdDeviation="28"/>
<feColorMatrix type="matrix" values="0 0 0 0 0 0 0 0 0 0 0 0 0 0 0 0 0 0 0.06 0"/>
<feBlend mode="normal" in2="BackgroundImageFix" result="effect1_dropShadow_16_3445"/>
<feBlend mode="normal" in="SourceGraphic" in2="effect1_dropShadow_16_3445" result="shape"/>
</filter>
</defs>
</svg>
