<svg width="17" height="16" viewBox="0 0 17 16" fill="none" xmlns="http://www.w3.org/2000/svg">
<rect width="17" height="16" fill="#A3A3A3"/>
<g id="INDEX">
<g id="TEAM">
<rect width="1920" height="715" transform="translate(-493 -560)" fill="white"/>
<g id="Services">
<g id="Person 01">
<rect x="-119.5" y="-285.5" width="277.5" height="340" fill="white"/>
<rect x="-119.5" y="-285.5" width="277.5" height="340" stroke="#EEEEEE"/>
<g id="down block">
<g id="Social icon">
<g id="Twitter">
<path id="Vector" d="M5.63673 13.3336C6.62252 13.3666 7.60493 13.2017 8.52589 12.8485C9.44684 12.4954 10.2877 11.9612 10.9987 11.2775C11.7097 10.5939 12.2764 9.77464 12.6654 8.86824C13.0544 7.96183 13.2577 6.98665 13.2634 6.00031C13.7152 5.44126 14.0506 4.79753 14.2501 4.10698C14.2649 4.05242 14.2637 3.99472 14.2466 3.94083C14.2295 3.88694 14.1971 3.83915 14.1534 3.80322C14.1097 3.7673 14.0566 3.74476 14.0004 3.73833C13.9442 3.7319 13.8874 3.74185 13.8367 3.76698C13.6004 3.88075 13.3343 3.9175 13.076 3.87205C12.8176 3.8266 12.5801 3.70125 12.3967 3.51365C12.1627 3.25737 11.8796 3.05067 11.5642 2.9058C11.2488 2.76093 10.9076 2.68084 10.5607 2.67027C10.2138 2.6597 9.8683 2.71887 9.54469 2.84427C9.22107 2.96967 8.92592 3.15876 8.67673 3.40031C8.33552 3.73075 8.08561 4.14384 7.95127 4.59943C7.81693 5.05502 7.80273 5.53762 7.91006 6.00031C5.67672 6.13365 4.14339 5.07365 2.91672 3.62031C2.87987 3.57858 2.83167 3.54848 2.77799 3.53369C2.72432 3.5189 2.6675 3.52007 2.61447 3.53703C2.56145 3.554 2.51451 3.58604 2.4794 3.62925C2.44428 3.67245 2.4225 3.72494 2.41672 3.78031C2.18304 5.0766 2.35161 6.41335 2.8998 7.61103C3.448 8.80871 4.34955 9.80996 5.48339 10.4803C4.72315 11.3522 3.65553 11.8968 2.50339 12.0003C2.44167 12.0106 2.38469 12.0398 2.34043 12.0841C2.29617 12.1283 2.26684 12.1852 2.25655 12.247C2.24627 12.3087 2.25554 12.3721 2.28306 12.4282C2.31059 12.4844 2.35499 12.5306 2.41006 12.5603C3.41241 13.0612 4.51621 13.3258 5.63673 13.3336Z" fill="#AAAAAA"/>
</g>
</g>
</g>
</g>
</g>
</g>
</g>
</svg>
